<svg xmlns="http://www.w3.org/2000/svg" xmlns:xlink="http://www.w3.org/1999/xlink" width="1080" zoomAndPan="magnify" viewBox="0 0 810 809.999993" height="1080" preserveAspectRatio="xMidYMid meet" version="1.0"><defs><g></g><clipPath id="4dcf9e69f4"><path d="M 1 0.0976562 L 648 0.0976562 L 648 511 L 1 511 Z M 1 0.0976562 " clip-rule="nonzero"></path></clipPath><clipPath id="9ffadcc73f"><rect x="0" width="649" y="0" height="512"></rect></clipPath></defs><g transform="matrix(1, 0, 0, 1, 80, 149)"><g clip-path="url(#9ffadcc73f)"><g clip-path="url(#4dcf9e69f4)"><path fill="#000000" d="M 631.855469 343.59375 C 624.882812 394.453125 612.71875 449.820312 573.683594 480.355469 C 553.183594 496.34375 527.585938 503.402344 502.324219 506.976562 C 461.585938 512.757812 420.253906 510.460938 379.175781 508.25 C 275.074219 502.550781 170.886719 496.855469 67.210938 484.4375 C 45.269531 481.800781 19.839844 476.273438 10.316406 455.179688 C 6.574219 446.84375 6.0625 437.234375 5.722656 427.964844 C 2.914062 358.734375 1.554688 289.503906 1.726562 220.1875 C 1.894531 178.003906 2.746094 134.542969 18.140625 95.675781 C 53.007812 7.566406 134.996094 10.457031 211.203125 8.414062 C 305.945312 5.863281 400.777344 3.226562 495.523438 0.675781 C 536.683594 -0.515625 580.742188 -0.769531 615.101562 23.300781 C 627.261719 31.71875 637.894531 43.457031 642.996094 57.914062 C 647.25 69.734375 647.503906 82.75 647.675781 95.421875 C 648.441406 178.34375 643.167969 261.4375 631.855469 343.59375 Z M 631.855469 343.59375 " fill-opacity="1" fill-rule="nonzero"></path></g><g fill="#ffffff" fill-opacity="1"><g transform="translate(71.471899, 206.711991)"><g><path d="M 52.53125 0 L 52.53125 -28.078125 L 29.46875 -28.078125 L 29.46875 0 L 7.90625 0 L 7.90625 -74.734375 L 29.46875 -74.734375 L 29.46875 -47.9375 L 52.53125 -47.9375 L 52.53125 -74.734375 L 74.09375 -74.734375 L 74.09375 0 Z M 52.53125 0 "></path></g></g></g><g fill="#ffffff" fill-opacity="1"><g transform="translate(149.830892, 206.711991)"><g><path d="M 7.15625 0 L 7.15625 -56.484375 L 27.65625 -56.484375 L 27.65625 0 Z M 5.125 -75.796875 C 5.125 -79.359375 6.28125 -82.222656 8.59375 -84.390625 C 10.90625 -86.566406 13.84375 -87.65625 17.40625 -87.65625 C 20.957031 -87.65625 23.890625 -86.566406 26.203125 -84.390625 C 28.523438 -82.222656 29.6875 -79.359375 29.6875 -75.796875 C 29.6875 -72.316406 28.523438 -69.453125 26.203125 -67.203125 C 23.890625 -64.960938 20.957031 -63.84375 17.40625 -63.84375 C 13.84375 -63.84375 10.90625 -64.960938 8.59375 -67.203125 C 6.28125 -69.453125 5.125 -72.316406 5.125 -75.796875 Z M 5.125 -75.796875 "></path></g></g></g><g fill="#ffffff" fill-opacity="1"><g transform="translate(181.003374, 206.711991)"><g><path d="M 29.46875 1.59375 C 24.195312 1.59375 19.601562 0.773438 15.6875 -0.859375 C 11.78125 -2.492188 8.757812 -4.820312 6.625 -7.84375 C 4.488281 -10.875 3.421875 -14.378906 3.421875 -18.359375 L 23.484375 -18.359375 C 23.484375 -16.648438 24.050781 -15.257812 25.1875 -14.1875 C 26.332031 -13.125 27.832031 -12.59375 29.6875 -12.59375 C 33.101562 -12.59375 34.8125 -13.910156 34.8125 -16.546875 C 34.8125 -17.898438 33.988281 -19.054688 32.34375 -20.015625 C 30.707031 -20.972656 28.003906 -21.8125 24.234375 -22.53125 C 17.191406 -23.882812 12.050781 -26 8.8125 -28.875 C 5.570312 -31.757812 3.953125 -35.585938 3.953125 -40.359375 C 3.953125 -46.054688 6.085938 -50.429688 10.359375 -53.484375 C 14.628906 -56.546875 20.785156 -58.078125 28.828125 -58.078125 C 36.722656 -58.078125 42.820312 -56.441406 47.125 -53.171875 C 51.4375 -49.898438 53.769531 -45.128906 54.125 -38.859375 L 34.703125 -38.859375 C 34.484375 -42.421875 32.453125 -44.203125 28.609375 -44.203125 C 27.117188 -44.203125 25.910156 -43.863281 24.984375 -43.1875 C 24.054688 -42.507812 23.59375 -41.566406 23.59375 -40.359375 C 23.59375 -39.003906 24.359375 -37.898438 25.890625 -37.046875 C 27.421875 -36.191406 30.320312 -35.375 34.59375 -34.59375 C 48.1875 -31.957031 54.984375 -25.90625 54.984375 -16.4375 C 54.984375 -10.8125 52.738281 -6.398438 48.25 -3.203125 C 43.769531 -0.00390625 37.507812 1.59375 29.46875 1.59375 Z M 29.46875 1.59375 "></path></g></g></g><g fill="#ffffff" fill-opacity="1"><g transform="translate(71.471899, 292.26856)"><g><path d="M 7.90625 0 L 7.90625 -74.734375 L 39.390625 -74.734375 C 45.734375 -74.734375 51.234375 -73.59375 55.890625 -71.3125 C 60.554688 -69.039062 64.148438 -65.800781 66.671875 -61.59375 C 69.203125 -57.394531 70.46875 -52.414062 70.46875 -46.65625 C 70.46875 -40.957031 69.203125 -35.988281 66.671875 -31.75 C 64.148438 -27.519531 60.554688 -24.25 55.890625 -21.9375 C 51.234375 -19.625 45.734375 -18.46875 39.390625 -18.46875 L 29.46875 -18.46875 L 29.46875 0 Z M 29.25 -36.515625 L 37.375 -36.515625 C 40.925781 -36.515625 43.695312 -37.40625 45.6875 -39.1875 C 47.6875 -40.96875 48.6875 -43.421875 48.6875 -46.546875 C 48.6875 -49.679688 47.6875 -52.132812 45.6875 -53.90625 C 43.695312 -55.6875 40.925781 -56.578125 37.375 -56.578125 L 29.25 -56.578125 Z M 29.25 -36.515625 "></path></g></g></g><g fill="#ffffff" fill-opacity="1"><g transform="translate(140.756562, 292.26856)"><g><path d="M 7.15625 0 L 7.15625 -56.484375 L 21.890625 -56.484375 L 24.453125 -49.4375 C 26.234375 -51.925781 28.4375 -53.722656 31.0625 -54.828125 C 33.695312 -55.929688 36.972656 -56.484375 40.890625 -56.484375 L 47.515625 -56.484375 L 47.515625 -38.109375 L 41 -38.109375 C 36.445312 -38.109375 33.082031 -36.988281 30.90625 -34.75 C 28.738281 -32.507812 27.65625 -28.96875 27.65625 -24.125 L 27.65625 0 Z M 7.15625 0 "></path></g></g></g><g fill="#ffffff" fill-opacity="1"><g transform="translate(187.942563, 292.26856)"><g><path d="M 35.234375 1.59375 C 28.972656 1.59375 23.4375 0.332031 18.625 -2.1875 C 13.820312 -4.71875 10.066406 -8.222656 7.359375 -12.703125 C 4.660156 -17.191406 3.3125 -22.390625 3.3125 -28.296875 C 3.3125 -34.203125 4.660156 -39.378906 7.359375 -43.828125 C 10.066406 -48.273438 13.835938 -51.757812 18.671875 -54.28125 C 23.515625 -56.8125 29.070312 -58.078125 35.34375 -58.078125 C 42.101562 -58.078125 47.921875 -56.632812 52.796875 -53.75 C 57.671875 -50.875 61.367188 -46.816406 63.890625 -41.578125 C 66.421875 -36.347656 67.507812 -30.210938 67.15625 -23.171875 L 23.59375 -23.171875 C 24.375 -20.109375 25.867188 -17.789062 28.078125 -16.21875 C 30.285156 -14.65625 32.8125 -13.875 35.65625 -13.875 C 37.863281 -13.875 39.890625 -14.265625 41.734375 -15.046875 C 43.585938 -15.835938 45.085938 -16.90625 46.234375 -18.25 L 66.09375 -18.25 C 63.59375 -11.988281 59.65625 -7.113281 54.28125 -3.625 C 48.914062 -0.144531 42.566406 1.59375 35.234375 1.59375 Z M 23.703125 -34.265625 L 47.625 -34.265625 C 46.769531 -36.898438 45.328125 -38.960938 43.296875 -40.453125 C 41.265625 -41.953125 38.679688 -42.703125 35.546875 -42.703125 C 32.703125 -42.703125 30.226562 -41.972656 28.125 -40.515625 C 26.03125 -39.054688 24.554688 -36.972656 23.703125 -34.265625 Z M 23.703125 -34.265625 "></path></g></g></g><g fill="#ffffff" fill-opacity="1"><g transform="translate(254.66506, 292.26856)"><g><path d="M 29.46875 1.59375 C 24.195312 1.59375 19.601562 0.773438 15.6875 -0.859375 C 11.78125 -2.492188 8.757812 -4.820312 6.625 -7.84375 C 4.488281 -10.875 3.421875 -14.378906 3.421875 -18.359375 L 23.484375 -18.359375 C 23.484375 -16.648438 24.050781 -15.257812 25.1875 -14.1875 C 26.332031 -13.125 27.832031 -12.59375 29.6875 -12.59375 C 33.101562 -12.59375 34.8125 -13.910156 34.8125 -16.546875 C 34.8125 -17.898438 33.988281 -19.054688 32.34375 -20.015625 C 30.707031 -20.972656 28.003906 -21.8125 24.234375 -22.53125 C 17.191406 -23.882812 12.050781 -26 8.8125 -28.875 C 5.570312 -31.757812 3.953125 -35.585938 3.953125 -40.359375 C 3.953125 -46.054688 6.085938 -50.429688 10.359375 -53.484375 C 14.628906 -56.546875 20.785156 -58.078125 28.828125 -58.078125 C 36.722656 -58.078125 42.820312 -56.441406 47.125 -53.171875 C 51.4375 -49.898438 53.769531 -45.128906 54.125 -38.859375 L 34.703125 -38.859375 C 34.484375 -42.421875 32.453125 -44.203125 28.609375 -44.203125 C 27.117188 -44.203125 25.910156 -43.863281 24.984375 -43.1875 C 24.054688 -42.507812 23.59375 -41.566406 23.59375 -40.359375 C 23.59375 -39.003906 24.359375 -37.898438 25.890625 -37.046875 C 27.421875 -36.191406 30.320312 -35.375 34.59375 -34.59375 C 48.1875 -31.957031 54.984375 -25.90625 54.984375 -16.4375 C 54.984375 -10.8125 52.738281 -6.398438 48.25 -3.203125 C 43.769531 -0.00390625 37.507812 1.59375 29.46875 1.59375 Z M 29.46875 1.59375 "></path></g></g></g><g fill="#ffffff" fill-opacity="1"><g transform="translate(309.644294, 292.26856)"><g><path d="M 35.234375 1.59375 C 28.972656 1.59375 23.4375 0.332031 18.625 -2.1875 C 13.820312 -4.71875 10.066406 -8.222656 7.359375 -12.703125 C 4.660156 -17.191406 3.3125 -22.390625 3.3125 -28.296875 C 3.3125 -34.203125 4.660156 -39.378906 7.359375 -43.828125 C 10.066406 -48.273438 13.835938 -51.757812 18.671875 -54.28125 C 23.515625 -56.8125 29.070312 -58.078125 35.34375 -58.078125 C 42.101562 -58.078125 47.921875 -56.632812 52.796875 -53.75 C 57.671875 -50.875 61.367188 -46.816406 63.890625 -41.578125 C 66.421875 -36.347656 67.507812 -30.210938 67.15625 -23.171875 L 23.59375 -23.171875 C 24.375 -20.109375 25.867188 -17.789062 28.078125 -16.21875 C 30.285156 -14.65625 32.8125 -13.875 35.65625 -13.875 C 37.863281 -13.875 39.890625 -14.265625 41.734375 -15.046875 C 43.585938 -15.835938 45.085938 -16.90625 46.234375 -18.25 L 66.09375 -18.25 C 63.59375 -11.988281 59.65625 -7.113281 54.28125 -3.625 C 48.914062 -0.144531 42.566406 1.59375 35.234375 1.59375 Z M 23.703125 -34.265625 L 47.625 -34.265625 C 46.769531 -36.898438 45.328125 -38.960938 43.296875 -40.453125 C 41.265625 -41.953125 38.679688 -42.703125 35.546875 -42.703125 C 32.703125 -42.703125 30.226562 -41.972656 28.125 -40.515625 C 26.03125 -39.054688 24.554688 -36.972656 23.703125 -34.265625 Z M 23.703125 -34.265625 "></path></g></g></g><g fill="#ffffff" fill-opacity="1"><g transform="translate(376.366791, 292.26856)"><g><path d="M 7.15625 0 L 7.15625 -56.484375 L 21.890625 -56.484375 L 24.015625 -50.71875 C 26.085938 -53.0625 28.722656 -54.875 31.921875 -56.15625 C 35.128906 -57.4375 38.617188 -58.078125 42.390625 -58.078125 C 49.648438 -58.078125 55.394531 -55.816406 59.625 -51.296875 C 63.863281 -46.773438 65.984375 -40.707031 65.984375 -33.09375 L 65.984375 0 L 45.484375 0 L 45.484375 -30.96875 C 45.484375 -34.3125 44.71875 -36.835938 43.1875 -38.546875 C 41.65625 -40.253906 39.535156 -41.109375 36.828125 -41.109375 C 33.984375 -41.109375 31.742188 -40.179688 30.109375 -38.328125 C 28.472656 -36.472656 27.65625 -33.835938 27.65625 -30.421875 L 27.65625 0 Z M 7.15625 0 "></path></g></g></g><g fill="#ffffff" fill-opacity="1"><g transform="translate(444.797408, 292.26856)"><g><path d="M 35.453125 1.59375 C 29.109375 1.59375 23.515625 0.332031 18.671875 -2.1875 C 13.835938 -4.71875 10.066406 -8.238281 7.359375 -12.75 C 4.660156 -17.269531 3.3125 -22.453125 3.3125 -28.296875 C 3.3125 -34.128906 4.679688 -39.269531 7.421875 -43.71875 C 10.160156 -48.164062 13.945312 -51.671875 18.78125 -54.234375 C 23.625 -56.796875 29.179688 -58.078125 35.453125 -58.078125 C 41.003906 -58.078125 46.003906 -57.082031 50.453125 -55.09375 C 54.898438 -53.101562 58.5625 -50.289062 61.4375 -46.65625 C 64.320312 -43.03125 66.15625 -38.757812 66.9375 -33.84375 L 47.71875 -33.84375 C 46.582031 -36.125 44.960938 -37.90625 42.859375 -39.1875 C 40.765625 -40.46875 38.363281 -41.109375 35.65625 -41.109375 C 32.03125 -41.109375 29.078125 -39.914062 26.796875 -37.53125 C 24.515625 -35.144531 23.375 -32.066406 23.375 -28.296875 C 23.375 -24.453125 24.515625 -21.335938 26.796875 -18.953125 C 29.078125 -16.566406 32.03125 -15.375 35.65625 -15.375 C 38.570312 -15.375 41.113281 -16.117188 43.28125 -17.609375 C 45.457031 -19.109375 47.046875 -21.140625 48.046875 -23.703125 L 67.46875 -23.703125 C 66.613281 -18.578125 64.726562 -14.109375 61.8125 -10.296875 C 58.894531 -6.492188 55.191406 -3.5625 50.703125 -1.5 C 46.222656 0.5625 41.140625 1.59375 35.453125 1.59375 Z M 35.453125 1.59375 "></path></g></g></g><g fill="#ffffff" fill-opacity="1"><g transform="translate(511.733409, 292.26856)"><g><path d="M 35.234375 1.59375 C 28.972656 1.59375 23.4375 0.332031 18.625 -2.1875 C 13.820312 -4.71875 10.066406 -8.222656 7.359375 -12.703125 C 4.660156 -17.191406 3.3125 -22.390625 3.3125 -28.296875 C 3.3125 -34.203125 4.660156 -39.378906 7.359375 -43.828125 C 10.066406 -48.273438 13.835938 -51.757812 18.671875 -54.28125 C 23.515625 -56.8125 29.070312 -58.078125 35.34375 -58.078125 C 42.101562 -58.078125 47.921875 -56.632812 52.796875 -53.75 C 57.671875 -50.875 61.367188 -46.816406 63.890625 -41.578125 C 66.421875 -36.347656 67.507812 -30.210938 67.15625 -23.171875 L 23.59375 -23.171875 C 24.375 -20.109375 25.867188 -17.789062 28.078125 -16.21875 C 30.285156 -14.65625 32.8125 -13.875 35.65625 -13.875 C 37.863281 -13.875 39.890625 -14.265625 41.734375 -15.046875 C 43.585938 -15.835938 45.085938 -16.90625 46.234375 -18.25 L 66.09375 -18.25 C 63.59375 -11.988281 59.65625 -7.113281 54.28125 -3.625 C 48.914062 -0.144531 42.566406 1.59375 35.234375 1.59375 Z M 23.703125 -34.265625 L 47.625 -34.265625 C 46.769531 -36.898438 45.328125 -38.960938 43.296875 -40.453125 C 41.265625 -41.953125 38.679688 -42.703125 35.546875 -42.703125 C 32.703125 -42.703125 30.226562 -41.972656 28.125 -40.515625 C 26.03125 -39.054688 24.554688 -36.972656 23.703125 -34.265625 Z M 23.703125 -34.265625 "></path></g></g></g><g fill="#ffffff" fill-opacity="1"><g transform="translate(71.471899, 377.825129)"><g><path d="M 43.984375 1.390625 C 38.503906 1.390625 33.453125 0.429688 28.828125 -1.484375 C 24.203125 -3.410156 20.195312 -6.097656 16.8125 -9.546875 C 13.4375 -13.003906 10.820312 -17.097656 8.96875 -21.828125 C 7.113281 -26.566406 6.1875 -31.75 6.1875 -37.375 C 6.1875 -42.988281 7.113281 -48.160156 8.96875 -52.890625 C 10.820312 -57.628906 13.4375 -61.722656 16.8125 -65.171875 C 20.195312 -68.628906 24.203125 -71.316406 28.828125 -73.234375 C 33.453125 -75.160156 38.503906 -76.125 43.984375 -76.125 C 49.890625 -76.125 55.316406 -75.035156 60.265625 -72.859375 C 65.210938 -70.691406 69.445312 -67.597656 72.96875 -63.578125 C 76.5 -59.554688 79.082031 -54.804688 80.71875 -49.328125 L 70.671875 -49.328125 C 68.753906 -54.734375 65.425781 -58.984375 60.6875 -62.078125 C 55.957031 -65.179688 50.5 -66.734375 44.3125 -66.734375 C 38.757812 -66.734375 33.847656 -65.484375 29.578125 -62.984375 C 25.304688 -60.492188 21.941406 -57.039062 19.484375 -52.625 C 17.023438 -48.21875 15.796875 -43.132812 15.796875 -37.375 C 15.796875 -31.601562 17.023438 -26.507812 19.484375 -22.09375 C 21.941406 -17.6875 25.304688 -14.234375 29.578125 -11.734375 C 33.847656 -9.242188 38.757812 -8 44.3125 -8 C 50.644531 -8 56.265625 -9.632812 61.171875 -12.90625 C 66.085938 -16.1875 69.503906 -20.640625 71.421875 -26.265625 L 81.359375 -26.265625 C 79.859375 -20.710938 77.3125 -15.867188 73.71875 -11.734375 C 70.125 -7.609375 65.78125 -4.390625 60.6875 -2.078125 C 55.601562 0.234375 50.035156 1.390625 43.984375 1.390625 Z M 43.984375 1.390625 "></path></g></g></g><g fill="#ffffff" fill-opacity="1"><g transform="translate(146.199942, 377.825129)"><g><path d="M 9.921875 0 L 9.921875 -79 L 18.890625 -79 L 18.890625 -48.15625 C 21.316406 -51.144531 24.203125 -53.332031 27.546875 -54.71875 C 30.890625 -56.101562 34.34375 -56.796875 37.90625 -56.796875 C 45.238281 -56.796875 50.96875 -54.5 55.09375 -49.90625 C 59.21875 -45.320312 61.28125 -39.078125 61.28125 -31.171875 L 61.28125 0 L 52.3125 0 L 52.3125 -30.328125 C 52.3125 -35.878906 50.921875 -40.253906 48.140625 -43.453125 C 45.367188 -46.660156 41.566406 -48.265625 36.734375 -48.265625 C 31.535156 -48.265625 27.257812 -46.460938 23.90625 -42.859375 C 20.5625 -39.265625 18.890625 -34.410156 18.890625 -28.296875 L 18.890625 0 Z M 9.921875 0 "></path></g></g></g><g fill="#ffffff" fill-opacity="1"><g transform="translate(203.953654, 377.825129)"><g><path d="M 32.03125 1.390625 C 24.769531 1.390625 19.09375 -0.957031 15 -5.65625 C 10.90625 -10.351562 8.859375 -16.65625 8.859375 -24.5625 L 8.859375 -55.40625 L 17.828125 -55.40625 L 17.828125 -25.40625 C 17.828125 -19.851562 19.195312 -15.441406 21.9375 -12.171875 C 24.675781 -8.898438 28.429688 -7.265625 33.203125 -7.265625 C 38.398438 -7.265625 42.617188 -9.113281 45.859375 -12.8125 C 49.097656 -16.507812 50.71875 -21.382812 50.71875 -27.4375 L 50.71875 -55.40625 L 59.6875 -55.40625 L 59.6875 0 L 52.3125 0 L 51.359375 -8.109375 C 48.929688 -4.835938 46.023438 -2.4375 42.640625 -0.90625 C 39.265625 0.625 35.726562 1.390625 32.03125 1.390625 Z M 32.03125 1.390625 "></path></g></g></g><g fill="#ffffff" fill-opacity="1"><g transform="translate(261.173577, 377.825129)"><g><path d="M 9.921875 0 L 9.921875 -55.40625 L 17.296875 -55.40625 L 18.359375 -45.796875 C 20.359375 -49.148438 22.832031 -51.585938 25.78125 -53.109375 C 28.738281 -54.640625 32.566406 -55.40625 37.265625 -55.40625 L 42.28125 -55.40625 L 42.28125 -47.078125 L 36.828125 -47.078125 C 33.484375 -47.078125 30.457031 -46.398438 27.75 -45.046875 C 25.050781 -43.703125 22.898438 -41.460938 21.296875 -38.328125 C 19.691406 -35.191406 18.890625 -30.992188 18.890625 -25.734375 L 18.890625 0 Z M 9.921875 0 "></path></g></g></g><g fill="#ffffff" fill-opacity="1"><g transform="translate(295.334026, 377.825129)"><g><path d="M 34.0625 1.390625 C 28.507812 1.390625 23.597656 0.144531 19.328125 -2.34375 C 15.054688 -4.832031 11.691406 -8.285156 9.234375 -12.703125 C 6.773438 -17.117188 5.546875 -22.140625 5.546875 -27.765625 C 5.546875 -33.378906 6.773438 -38.375 9.234375 -42.75 C 11.691406 -47.132812 15.054688 -50.570312 19.328125 -53.0625 C 23.597656 -55.550781 28.507812 -56.796875 34.0625 -56.796875 C 38.6875 -56.796875 42.921875 -55.921875 46.765625 -54.171875 C 50.609375 -52.429688 53.84375 -50.015625 56.46875 -46.921875 C 59.101562 -43.828125 60.882812 -40.179688 61.8125 -35.984375 L 52.734375 -35.984375 C 51.097656 -39.828125 48.625 -42.832031 45.3125 -45 C 42.007812 -47.175781 38.257812 -48.265625 34.0625 -48.265625 C 30.289062 -48.265625 26.925781 -47.390625 23.96875 -45.640625 C 21.007812 -43.898438 18.691406 -41.476562 17.015625 -38.375 C 15.347656 -35.28125 14.515625 -31.742188 14.515625 -27.765625 C 14.515625 -23.773438 15.347656 -20.226562 17.015625 -17.125 C 18.691406 -14.03125 21.007812 -11.613281 23.96875 -9.875 C 26.925781 -8.132812 30.289062 -7.265625 34.0625 -7.265625 C 38.539062 -7.265625 42.46875 -8.453125 45.84375 -10.828125 C 49.226562 -13.210938 51.597656 -16.398438 52.953125 -20.390625 L 62.453125 -20.390625 C 60.609375 -13.703125 57.15625 -8.398438 52.09375 -4.484375 C 47.039062 -0.566406 41.03125 1.390625 34.0625 1.390625 Z M 34.0625 1.390625 "></path></g></g></g><g fill="#ffffff" fill-opacity="1"><g transform="translate(350.632325, 377.825129)"><g><path d="M 9.921875 0 L 9.921875 -79 L 18.890625 -79 L 18.890625 -48.15625 C 21.316406 -51.144531 24.203125 -53.332031 27.546875 -54.71875 C 30.890625 -56.101562 34.34375 -56.796875 37.90625 -56.796875 C 45.238281 -56.796875 50.96875 -54.5 55.09375 -49.90625 C 59.21875 -45.320312 61.28125 -39.078125 61.28125 -31.171875 L 61.28125 0 L 52.3125 0 L 52.3125 -30.328125 C 52.3125 -35.878906 50.921875 -40.253906 48.140625 -43.453125 C 45.367188 -46.660156 41.566406 -48.265625 36.734375 -48.265625 C 31.535156 -48.265625 27.257812 -46.460938 23.90625 -42.859375 C 20.5625 -39.265625 18.890625 -34.410156 18.890625 -28.296875 L 18.890625 0 Z M 9.921875 0 "></path></g></g></g></g></g></svg>